<svg id="my-logo" xmlns="http://www.w3.org/2000/svg" width="301.393" height="301.393" viewBox="0 0 301.393 301.393">
  <g id="Path_3" data-name="Path 3" fill="none">
    <path d="M150.7,0A150.7,150.7,0,1,1,0,150.7,150.7,150.7,0,0,1,150.7,0Z" stroke="none"/>
    <path d="M 150.6965026855469 4 C 140.7407073974609 4 130.7923736572266 5.00274658203125 121.1277923583984 6.98040771484375 C 111.7109222412109 8.907379150390625 102.4481201171875 11.78271484375 93.59683227539062 15.5264892578125 C 84.90533447265625 19.20269775390625 76.52204895019531 23.7530517578125 68.67987060546875 29.05108642578125 C 60.91120910644531 34.29949951171875 53.605712890625 40.32708740234375 46.96641540527344 46.96641540527344 C 40.32708740234375 53.605712890625 34.29949951171875 60.91120910644531 29.05108642578125 68.67987060546875 C 23.7530517578125 76.52204895019531 19.20269775390625 84.90533447265625 15.5264892578125 93.59683227539062 C 11.78271484375 102.4481201171875 8.907379150390625 111.7109222412109 6.98040771484375 121.1277923583984 C 5.00274658203125 130.7923736572266 4 140.7407073974609 4 150.6965026855469 C 4 160.6522979736328 5.00274658203125 170.6006317138672 6.98040771484375 180.2651672363281 C 8.907379150390625 189.6820831298828 11.78271484375 198.9448394775391 15.5264892578125 207.7961730957031 C 19.20269775390625 216.4876708984375 23.7530517578125 224.8709106445312 29.05108642578125 232.7130889892578 C 34.29949951171875 240.4817962646484 40.32708740234375 247.7872619628906 46.96641540527344 254.4265899658203 C 53.605712890625 261.0658874511719 60.91120910644531 267.0934448242188 68.67987060546875 272.3419189453125 C 76.52204895019531 277.6399536132812 84.90533447265625 282.1903076171875 93.59683227539062 285.8665161132812 C 102.4481201171875 289.6102905273438 111.7109222412109 292.4856262207031 121.1277923583984 294.41259765625 C 130.7923736572266 296.3902587890625 140.7407073974609 297.3930053710938 150.6965026855469 297.3930053710938 C 160.6522979736328 297.3930053710938 170.6006317138672 296.3902587890625 180.2651672363281 294.41259765625 C 189.6820831298828 292.4856262207031 198.9448394775391 289.6102905273438 207.7961730957031 285.8665161132812 C 216.4876708984375 282.1903076171875 224.8709106445312 277.6399536132812 232.7130889892578 272.3419189453125 C 240.4817962646484 267.0934448242188 247.7872619628906 261.0658874511719 254.4265899658203 254.4265899658203 C 261.0658874511719 247.7872619628906 267.0934448242188 240.4817962646484 272.3419189453125 232.7130889892578 C 277.6399536132812 224.8709106445312 282.1903076171875 216.4876708984375 285.8665161132812 207.7961730957031 C 289.6102905273438 198.9448394775391 292.4856262207031 189.6820831298828 294.41259765625 180.2651672363281 C 296.3902587890625 170.6006317138672 297.3930053710938 160.6522979736328 297.3930053710938 150.6965026855469 C 297.3930053710938 140.7407073974609 296.3902587890625 130.7923736572266 294.41259765625 121.1277923583984 C 292.4856262207031 111.7109222412109 289.6102905273438 102.4481201171875 285.8665161132812 93.59683227539062 C 282.1903076171875 84.90533447265625 277.6399536132812 76.52204895019531 272.3419189453125 68.67987060546875 C 267.0934448242188 60.91120910644531 261.0658874511719 53.605712890625 254.4265899658203 46.96641540527344 C 247.7872619628906 40.32708740234375 240.4817962646484 34.29949951171875 232.7130889892578 29.05108642578125 C 224.8709106445312 23.7530517578125 216.4876708984375 19.20269775390625 207.7961730957031 15.5264892578125 C 198.9448394775391 11.78271484375 189.6820831298828 8.907379150390625 180.2651672363281 6.98040771484375 C 170.6006317138672 5.00274658203125 160.6522979736328 4 150.6965026855469 4 M 150.6965026855469 0 C 233.923828125 0 301.3930053710938 67.46913146972656 301.3930053710938 150.6965026855469 C 301.3930053710938 233.923828125 233.923828125 301.3930053710938 150.6965026855469 301.3930053710938 C 67.46913146972656 301.3930053710938 0 233.923828125 0 150.6965026855469 C 0 67.46913146972656 67.46913146972656 0 150.6965026855469 0 Z" stroke="none" fill="#b4b4b4"/>
  </g>
  <text id="T" transform="translate(116 206)" fill="#b4b4b4" font-size="133" font-family="SegoeUI, Segoe UI"><tspan x="0" y="0">T</tspan></text>
</svg>
